<?xml version="1.0" encoding="utf-8"?>
<!DOCTYPE svg PUBLIC "-//W3C//DTD SVG 1.1//EN" "http://www.w3.org/Graphics/SVG/1.1/DTD/svg11.dtd">
<svg version="1.1" id="Your_Design" xmlns="http://www.w3.org/2000/svg" xmlns:xlink="http://www.w3.org/1999/xlink" x="0px"
	 y="0px" width="500" height="300" viewBox="0 0 500 300" enable-background="new 0 0 500 300"
	 xml:space="preserve">
<rect fill="#000000" width="500" height="300"/>
<!--PASTE EXAMPLE.svg OUTPUT BELOW THIS COMMENT-->
<circle fill="#AA00AA" cx="250.000" cy="150.000" r="0.000"/>
<circle fill="#AA00AA" cx="250.000" cy="150.000" r="0.000"/>
<circle fill="#00DD00" cx="250.000" cy="150.000" r="0.000"/>
<circle fill="#DD0000" cx="250.000" cy="150.000" r="0.000"/>
<circle fill="#DD0000" cx="251.272" cy="148.728" r="1.272"/>
<circle fill="#DD0000" cx="248.728" cy="151.272" r="1.272"/>
<circle fill="#DDDD00" cx="251.272" cy="151.272" r="1.272"/>
<circle fill="#00DD00" cx="248.728" cy="148.728" r="1.272"/>
<circle fill="#AA00AA" cx="248.728" cy="146.184" r="2.544"/>
<circle fill="#DDDD00" cx="251.272" cy="153.816" r="2.544"/>
<circle fill="#00DD00" cx="253.816" cy="148.728" r="2.544"/>
<circle fill="#DDDD00" cx="246.184" cy="151.272" r="2.544"/>
<circle fill="#DD0000" cx="252.544" cy="142.368" r="3.816"/>
<circle fill="#00DD00" cx="247.456" cy="157.632" r="3.816"/>
<circle fill="#AA00AA" cx="257.632" cy="152.544" r="3.816"/>
<circle fill="#00DD00" cx="242.368" cy="147.456" r="3.816"/>
<circle fill="#AA00AA" cx="247.456" cy="137.280" r="5.088"/>
<circle fill="#DDDD00" cx="252.544" cy="162.720" r="5.088"/>
<circle fill="#DD0000" cx="262.720" cy="147.456" r="5.088"/>
<circle fill="#AA00AA" cx="237.280" cy="152.544" r="5.088"/>
<circle fill="#DDDD00" cx="253.816" cy="130.920" r="6.360"/>
<circle fill="#00DD00" cx="246.184" cy="169.080" r="6.360"/>
<circle fill="#AA00AA" cx="269.080" cy="153.816" r="6.360"/>
<circle fill="#DDDD00" cx="230.920" cy="146.184" r="6.360"/>
<circle fill="#00DD00" cx="246.184" cy="123.288" r="7.632"/>
<circle fill="#AA00AA" cx="253.816" cy="176.712" r="7.632"/>
<circle fill="#DD0000" cx="276.712" cy="146.184" r="7.632"/>
<circle fill="#AA00AA" cx="223.288" cy="153.816" r="7.632"/>
<circle fill="#DD0000" cx="255.088" cy="114.384" r="8.904"/>
<circle fill="#DDDD00" cx="244.912" cy="185.616" r="8.904"/>
<circle fill="#00DD00" cx="285.616" cy="155.088" r="8.904"/>
<circle fill="#DDDD00" cx="214.384" cy="144.912" r="8.904"/>
<circle fill="#AA00AA" cx="244.912" cy="104.208" r="10.176"/>
<circle fill="#DD0000" cx="255.088" cy="195.792" r="10.176"/>
<circle fill="#DD0000" cx="295.792" cy="144.912" r="10.176"/>
<circle fill="#00DD00" cx="204.208" cy="155.088" r="10.176"/>
<circle fill="#DD0000" cx="256.360" cy="92.760" r="11.448"/>
<circle fill="#DDDD00" cx="243.640" cy="207.240" r="11.448"/>
<circle fill="#00DD00" cx="307.240" cy="156.360" r="11.448"/>
<circle fill="#DD0000" cx="192.760" cy="143.640" r="11.448"/>
<circle fill="#AA00AA" cx="243.640" cy="80.040" r="12.720"/>
<circle fill="#00DD00" cx="256.360" cy="219.960" r="12.720"/>
<circle fill="#DDDD00" cx="319.960" cy="143.640" r="12.720"/>
<circle fill="#AA00AA" cx="180.040" cy="156.360" r="12.720"/>
<circle fill="#DDDD00" cx="257.632" cy="66.048" r="13.992"/>
<circle fill="#DDDD00" cx="242.368" cy="233.952" r="13.992"/>
<circle fill="#00DD00" cx="333.952" cy="157.632" r="13.992"/>
<circle fill="#DD0000" cx="166.048" cy="142.368" r="13.992"/>
<circle fill="#AA00AA" cx="242.368" cy="50.784" r="15.264"/>
<circle fill="#00DD00" cx="257.632" cy="249.216" r="15.264"/>
<circle fill="#DDDD00" cx="349.216" cy="142.368" r="15.264"/>
<circle fill="#00DD00" cx="150.784" cy="157.632" r="15.264"/>
<circle fill="#00DD00" cx="258.904" cy="34.248" r="16.536"/>
<circle fill="#DD0000" cx="241.096" cy="265.752" r="16.536"/>
<circle fill="#00DD00" cx="365.752" cy="158.904" r="16.536"/>
<circle fill="#DDDD00" cx="134.248" cy="141.096" r="16.536"/>
<circle fill="#DDDD00" cx="241.096" cy="16.440" r="17.808"/>
<circle fill="#00DD00" cx="258.904" cy="283.560" r="17.808"/>
<circle fill="#DDDD00" cx="383.560" cy="141.096" r="17.808"/>
<circle fill="#00DD00" cx="116.440" cy="158.904" r="17.808"/>
<circle fill="#00DD00" cx="260.176" cy="-2.640" r="19.080"/>
<circle fill="#DDDD00" cx="239.824" cy="302.640" r="19.080"/>
<circle fill="#AA00AA" cx="402.640" cy="160.176" r="19.080"/>
<circle fill="#AA00AA" cx="97.360" cy="139.824" r="19.080"/>
<circle fill="#DDDD00" cx="239.824" cy="-22.992" r="20.352"/>
<circle fill="#00DD00" cx="260.176" cy="322.992" r="20.352"/>
<circle fill="#DD0000" cx="422.992" cy="139.824" r="20.352"/>
<circle fill="#DD0000" cx="77.008" cy="160.176" r="20.352"/>
<circle fill="#00DD00" cx="261.448" cy="-44.616" r="21.624"/>
<circle fill="#DDDD00" cx="238.552" cy="344.616" r="21.624"/>
<circle fill="#AA00AA" cx="444.616" cy="161.448" r="21.624"/>
<circle fill="#AA00AA" cx="55.384" cy="138.552" r="21.624"/>
<circle fill="#DDDD00" cx="238.552" cy="-67.512" r="22.896"/>
<circle fill="#00DD00" cx="261.448" cy="367.512" r="22.896"/>
<circle fill="#DD0000" cx="467.512" cy="138.552" r="22.896"/>
<circle fill="#DD0000" cx="32.488" cy="161.448" r="22.896"/>
<circle fill="#00DD00" cx="262.720" cy="-91.680" r="24.168"/>
<circle fill="#DDDD00" cx="237.280" cy="391.680" r="24.168"/>
<circle fill="#AA00AA" cx="491.680" cy="162.720" r="24.168"/>
<circle fill="#AA00AA" cx="8.320" cy="137.280" r="24.168"/>
<circle fill="#DDDD00" cx="237.280" cy="-117.120" r="25.440"/>
<circle fill="#00DD00" cx="262.720" cy="417.120" r="25.440"/>
<circle fill="#DD0000" cx="517.120" cy="137.280" r="25.440"/>
<circle fill="#DD0000" cx="-17.120" cy="162.720" r="25.440"/>
<circle fill="#00DD00" cx="263.992" cy="-143.832" r="26.712"/>
<circle fill="#DDDD00" cx="236.008" cy="443.832" r="26.712"/>
<circle fill="#AA00AA" cx="543.832" cy="163.992" r="26.712"/>
<circle fill="#AA00AA" cx="-43.832" cy="136.008" r="26.712"/>
<circle fill="#DDDD00" cx="236.008" cy="-171.816" r="27.984"/>
<circle fill="#00DD00" cx="263.992" cy="471.816" r="27.984"/>
<circle fill="#DD0000" cx="571.816" cy="136.008" r="27.984"/>
<circle fill="#DD0000" cx="-71.816" cy="163.992" r="27.984"/>
<circle fill="#00DD00" cx="265.264" cy="-201.072" r="29.256"/>
<circle fill="#DDDD00" cx="234.736" cy="501.072" r="29.256"/>
<circle fill="#AA00AA" cx="601.072" cy="165.264" r="29.256"/>
<circle fill="#AA00AA" cx="-101.072" cy="134.736" r="29.256"/>
<!--PASTE EXAMPLE.svg OUTPUT ABOVE THIS COMMENT-->
</svg>
