<?xml version="1.0" encoding="utf-8"?>
<!DOCTYPE svg PUBLIC "-//W3C//DTD SVG 1.1//EN" "http://www.w3.org/Graphics/SVG/1.1/DTD/svg11.dtd">
<svg version="1.1" id="Your_Design" xmlns="http://www.w3.org/2000/svg" xmlns:xlink="http://www.w3.org/1999/xlink" x="0px"
y="0px" width="700" height="700" viewBox="0 0 700 700" enable-background="new 0 0 700 700" xml:space="preserve">
<rect fill="#000000" width="700" height="700"/>
<circle fill="#00DD00" cx="351.130" cy="348.870" r="1.130"/>
<circle fill="#AA00AA" cx="348.870" cy="351.130" r="1.130"/>
<circle fill="#DDDD00" cx="351.130" cy="351.130" r="1.130"/>
<circle fill="#DDDD00" cx="348.870" cy="348.870" r="1.130"/>
<circle fill="#AA00AA" cx="352.407" cy="347.593" r="1.277"/>
<circle fill="#DD0000" cx="347.593" cy="352.407" r="1.277"/>
<circle fill="#00DD00" cx="352.407" cy="352.407" r="1.277"/>
<circle fill="#DD0000" cx="347.593" cy="347.593" r="1.277"/>
<circle fill="#DDDD00" cx="350.964" cy="346.150" r="1.443"/>
<circle fill="#AA00AA" cx="349.036" cy="353.850" r="1.443"/>
<circle fill="#DDDD00" cx="353.850" cy="350.964" r="1.443"/>
<circle fill="#AA00AA" cx="346.150" cy="349.036" r="1.443"/>
<circle fill="#00DD00" cx="352.594" cy="344.520" r="1.630"/>
<circle fill="#DDDD00" cx="347.406" cy="355.480" r="1.630"/>
<circle fill="#DD0000" cx="355.480" cy="352.594" r="1.630"/>
<circle fill="#DD0000" cx="344.520" cy="347.406" r="1.630"/>
<circle fill="#DDDD00" cx="350.752" cy="342.677" r="1.842"/>
<circle fill="#00DD00" cx="349.248" cy="357.323" r="1.842"/>
<circle fill="#DDDD00" cx="357.323" cy="350.752" r="1.842"/>
<circle fill="#DDDD00" cx="342.677" cy="349.248" r="1.842"/>
<circle fill="#AA00AA" cx="352.834" cy="340.595" r="2.082"/>
<circle fill="#DDDD00" cx="347.166" cy="359.405" r="2.082"/>
<circle fill="#DD0000" cx="359.405" cy="352.834" r="2.082"/>
<circle fill="#AA00AA" cx="340.595" cy="347.166" r="2.082"/>
<circle fill="#DDDD00" cx="350.481" cy="338.243" r="2.353"/>
<circle fill="#00DD00" cx="349.519" cy="361.757" r="2.353"/>
<circle fill="#AA00AA" cx="361.757" cy="350.481" r="2.353"/>
<circle fill="#DDDD00" cx="338.243" cy="349.519" r="2.353"/>
<circle fill="#DD0000" cx="353.140" cy="335.584" r="2.658"/>
<circle fill="#DDDD00" cx="346.860" cy="364.416" r="2.658"/>
<circle fill="#00DD00" cx="364.416" cy="353.140" r="2.658"/>
<circle fill="#AA00AA" cx="335.584" cy="346.860" r="2.658"/>
<circle fill="#AA00AA" cx="350.136" cy="332.580" r="3.004"/>
<circle fill="#00DD00" cx="349.864" cy="367.420" r="3.004"/>
<circle fill="#DDDD00" cx="367.420" cy="350.136" r="3.004"/>
<circle fill="#00DD00" cx="332.580" cy="349.864" r="3.004"/>
<circle fill="#DD0000" cx="353.530" cy="329.186" r="3.395"/>
<circle fill="#DDDD00" cx="346.470" cy="370.814" r="3.395"/>
<circle fill="#AA00AA" cx="370.814" cy="353.530" r="3.395"/>
<circle fill="#DDDD00" cx="329.186" cy="346.470" r="3.395"/>
<circle fill="#AA00AA" cx="349.694" cy="325.350" r="3.836"/>
<circle fill="#00DD00" cx="350.306" cy="374.650" r="3.836"/>
<circle fill="#00DD00" cx="374.650" cy="349.694" r="3.836"/>
<circle fill="#00DD00" cx="325.350" cy="350.306" r="3.836"/>
<circle fill="#DD0000" cx="354.029" cy="321.015" r="4.335"/>
<circle fill="#DDDD00" cx="345.971" cy="378.985" r="4.335"/>
<circle fill="#AA00AA" cx="378.985" cy="354.029" r="4.335"/>
<circle fill="#DD0000" cx="321.015" cy="345.971" r="4.335"/>
<circle fill="#DDDD00" cx="349.131" cy="316.117" r="4.898"/>
<circle fill="#AA00AA" cx="350.869" cy="383.883" r="4.898"/>
<circle fill="#DD0000" cx="383.883" cy="349.131" r="4.898"/>
<circle fill="#DDDD00" cx="316.117" cy="350.869" r="4.898"/>
<circle fill="#00DD00" cx="354.666" cy="310.583" r="5.535"/>
<circle fill="#00DD00" cx="345.334" cy="389.417" r="5.535"/>
<circle fill="#DDDD00" cx="389.417" cy="354.666" r="5.535"/>
<circle fill="#00DD00" cx="310.583" cy="345.334" r="5.535"/>
<circle fill="#DDDD00" cx="348.411" cy="304.328" r="6.254"/>
<circle fill="#DD0000" cx="351.589" cy="395.672" r="6.254"/>
<circle fill="#00DD00" cx="395.672" cy="348.411" r="6.254"/>
<circle fill="#DDDD00" cx="304.328" cy="351.589" r="6.254"/>
<circle fill="#AA00AA" cx="355.479" cy="297.261" r="7.067"/>
<circle fill="#00DD00" cx="344.521" cy="402.739" r="7.067"/>
<circle fill="#DDDD00" cx="402.739" cy="355.479" r="7.067"/>
<circle fill="#DD0000" cx="297.261" cy="344.521" r="7.067"/>
<circle fill="#DD0000" cx="347.493" cy="289.275" r="7.986"/>
<circle fill="#DD0000" cx="352.507" cy="410.725" r="7.986"/>
<circle fill="#DD0000" cx="410.725" cy="347.493" r="7.986"/>
<circle fill="#00DD00" cx="289.275" cy="352.507" r="7.986"/>
<circle fill="#AA00AA" cx="356.517" cy="280.251" r="9.024"/>
<circle fill="#AA00AA" cx="343.483" cy="419.749" r="9.024"/>
<circle fill="#DDDD00" cx="419.749" cy="356.517" r="9.024"/>
<circle fill="#DD0000" cx="280.251" cy="343.483" r="9.024"/>
<circle fill="#DD0000" cx="346.320" cy="270.053" r="10.197"/>
<circle fill="#00DD00" cx="353.680" cy="429.947" r="10.197"/>
<circle fill="#00DD00" cx="429.947" cy="346.320" r="10.197"/>
<circle fill="#00DD00" cx="270.053" cy="353.680" r="10.197"/>
<circle fill="#AA00AA" cx="357.843" cy="258.530" r="11.523"/>
<circle fill="#AA00AA" cx="342.157" cy="441.470" r="11.523"/>
<circle fill="#DDDD00" cx="441.470" cy="357.843" r="11.523"/>
<circle fill="#AA00AA" cx="258.530" cy="342.157" r="11.523"/>
<circle fill="#DD0000" cx="344.822" cy="245.509" r="13.021"/>
<circle fill="#DD0000" cx="355.178" cy="454.491" r="13.021"/>
<circle fill="#00DD00" cx="454.491" cy="344.822" r="13.021"/>
<circle fill="#DD0000" cx="245.509" cy="355.178" r="13.021"/>
<circle fill="#AA00AA" cx="359.535" cy="230.795" r="14.714"/>
<circle fill="#AA00AA" cx="340.465" cy="469.205" r="14.714"/>
<circle fill="#DD0000" cx="469.205" cy="359.535" r="14.714"/>
<circle fill="#AA00AA" cx="230.795" cy="340.465" r="14.714"/>
<circle fill="#DDDD00" cx="342.909" cy="214.169" r="16.627"/>
<circle fill="#DDDD00" cx="357.091" cy="485.831" r="16.627"/>
<circle fill="#00DD00" cx="485.831" cy="342.909" r="16.627"/>
<circle fill="#00DD00" cx="214.169" cy="357.091" r="16.627"/>
<circle fill="#AA00AA" cx="361.697" cy="195.381" r="18.788"/>
<circle fill="#00DD00" cx="338.303" cy="504.619" r="18.788"/>
<circle fill="#DD0000" cx="504.619" cy="361.697" r="18.788"/>
<circle fill="#AA00AA" cx="195.381" cy="338.303" r="18.788"/>
<circle fill="#00DD00" cx="340.466" cy="174.150" r="21.231"/>
<circle fill="#DDDD00" cx="359.534" cy="525.850" r="21.231"/>
<circle fill="#AA00AA" cx="525.850" cy="340.466" r="21.231"/>
<circle fill="#00DD00" cx="174.150" cy="359.534" r="21.231"/>
<circle fill="#AA00AA" cx="364.457" cy="150.159" r="23.991"/>
<circle fill="#AA00AA" cx="335.543" cy="549.841" r="23.991"/>
<circle fill="#00DD00" cx="549.841" cy="364.457" r="23.991"/>
<circle fill="#DD0000" cx="150.159" cy="335.543" r="23.991"/>
<circle fill="#DDDD00" cx="337.348" cy="123.050" r="27.109"/>
<circle fill="#DDDD00" cx="362.652" cy="576.950" r="27.109"/>
<circle fill="#DD0000" cx="576.950" cy="337.348" r="27.109"/>
<circle fill="#DDDD00" cx="123.050" cy="362.652" r="27.109"/>
<circle fill="#AA00AA" cx="367.981" cy="92.417" r="30.633"/>
<circle fill="#00DD00" cx="332.019" cy="607.583" r="30.633"/>
<circle fill="#00DD00" cx="607.583" cy="367.981" r="30.633"/>
<circle fill="#AA00AA" cx="92.417" cy="332.019" r="30.633"/>
<circle fill="#00DD00" cx="333.365" cy="57.801" r="34.616"/>
<circle fill="#DDDD00" cx="366.635" cy="642.199" r="34.616"/>
<circle fill="#DDDD00" cx="642.199" cy="333.365" r="34.616"/>
<circle fill="#DDDD00" cx="57.801" cy="366.635" r="34.616"/>
<circle fill="#DDDD00" cx="372.481" cy="18.685" r="39.116"/>
<circle fill="#00DD00" cx="327.519" cy="681.315" r="39.116"/>
<circle fill="#00DD00" cx="681.315" cy="372.481" r="39.116"/>
<circle fill="#DD0000" cx="18.685" cy="327.519" r="39.116"/>
<circle fill="#AA00AA" cx="328.280" cy="-25.516" r="44.201"/>
<circle fill="#DDDD00" cx="371.720" cy="725.516" r="44.201"/>
<circle fill="#DD0000" cx="725.516" cy="328.280" r="44.201"/>
<circle fill="#AA00AA" cx="-25.516" cy="371.720" r="44.201"/>
<circle fill="#DD0000" cx="378.227" cy="-75.463" r="49.947"/>
<circle fill="#DD0000" cx="321.773" cy="775.463" r="49.947"/>
<circle fill="#00DD00" cx="775.463" cy="378.227" r="49.947"/>
<circle fill="#DD0000" cx="-75.463" cy="321.773" r="49.947"/>
<circle fill="#00DD00" cx="321.787" cy="-131.903" r="56.440"/>
<circle fill="#AA00AA" cx="378.213" cy="831.903" r="56.440"/>
<circle fill="#DD0000" cx="831.903" cy="321.787" r="56.440"/>
<circle fill="#AA00AA" cx="-131.903" cy="378.213" r="56.440"/>
<circle fill="#DDDD00" cx="385.564" cy="-195.681" r="63.777"/>
<circle fill="#00DD00" cx="314.436" cy="895.681" r="63.777"/>
<circle fill="#00DD00" cx="895.681" cy="385.564" r="63.777"/>
<circle fill="#DD0000" cx="-195.681" cy="314.436" r="63.777"/>
<circle fill="#AA00AA" cx="313.496" cy="-267.749" r="72.068"/>
<circle fill="#AA00AA" cx="386.504" cy="967.749" r="72.068"/>
<circle fill="#DD0000" cx="967.749" cy="313.496" r="72.068"/>
<circle fill="#DDDD00" cx="-267.749" cy="386.504" r="72.068"/>
<circle fill="#DDDD00" cx="394.933" cy="-349.187" r="81.437"/>
<circle fill="#00DD00" cx="305.067" cy="1049.187" r="81.437"/>
<circle fill="#DDDD00" cx="1049.187" cy="394.933" r="81.437"/>
<circle fill="#DD0000" cx="-349.187" cy="305.067" r="81.437"/>
<circle fill="#00DD00" cx="302.909" cy="-441.211" r="92.024"/>
<circle fill="#AA00AA" cx="397.091" cy="1141.211" r="92.024"/>
<circle fill="#00DD00" cx="1141.211" cy="302.909" r="92.024"/>
<circle fill="#00DD00" cx="-441.211" cy="397.091" r="92.024"/>
<circle fill="#DD0000" cx="406.896" cy="-545.198" r="103.987"/>
<circle fill="#DD0000" cx="293.104" cy="1245.198" r="103.987"/>
<circle fill="#AA00AA" cx="1245.198" cy="406.896" r="103.987"/>
<circle fill="#DDDD00" cx="-545.198" cy="293.104" r="103.987"/>
<circle fill="#DDDD00" cx="289.391" cy="-662.704" r="117.506"/>
<circle fill="#AA00AA" cx="410.609" cy="1362.704" r="117.506"/>
<circle fill="#DD0000" cx="1362.704" cy="289.391" r="117.506"/>
<circle fill="#00DD00" cx="-662.704" cy="410.609" r="117.506"/>
<circle fill="#00DD00" cx="422.172" cy="-795.485" r="132.782"/>
<circle fill="#DDDD00" cx="277.828" cy="1495.485" r="132.782"/>
<circle fill="#AA00AA" cx="1495.485" cy="422.172" r="132.782"/>
<circle fill="#DD0000" cx="-795.485" cy="277.828" r="132.782"/>
<circle fill="#DDDD00" cx="272.129" cy="-945.529" r="150.043"/>
<circle fill="#00DD00" cx="427.871" cy="1645.529" r="150.043"/>
<circle fill="#00DD00" cx="1645.529" cy="272.129" r="150.043"/>
<circle fill="#DDDD00" cx="-945.529" cy="427.871" r="150.043"/>
<circle fill="#00DD00" cx="441.678" cy="-1115.077" r="169.549"/>
<circle fill="#DDDD00" cx="258.322" cy="1815.077" r="169.549"/>
<circle fill="#DDDD00" cx="1815.077" cy="441.678" r="169.549"/>
<circle fill="#00DD00" cx="-1115.077" cy="258.322" r="169.549"/>
<circle fill="#DDDD00" cx="250.088" cy="-1306.667" r="191.590"/>
<circle fill="#00DD00" cx="449.912" cy="2006.667" r="191.590"/>
<circle fill="#00DD00" cx="2006.667" cy="250.088" r="191.590"/>
<circle fill="#AA00AA" cx="-1306.667" cy="449.912" r="191.590"/>
<circle fill="#AA00AA" cx="466.585" cy="-1523.164" r="216.497"/>
<circle fill="#DDDD00" cx="233.415" cy="2223.164" r="216.497"/>
<circle fill="#DDDD00" cx="2223.164" cy="466.585" r="216.497"/>
<circle fill="#DD0000" cx="-1523.164" cy="233.415" r="216.497"/>
<circle fill="#DD0000" cx="221.943" cy="-1767.805" r="244.641"/>
<circle fill="#00DD00" cx="478.057" cy="2467.805" r="244.641"/>
<circle fill="#DD0000" cx="2467.805" cy="221.943" r="244.641"/>
<circle fill="#DDDD00" cx="-1767.805" cy="478.057" r="244.641"/>
<circle fill="#00DD00" cx="498.388" cy="-2044.250" r="276.445"/>
<circle fill="#DD0000" cx="201.612" cy="2744.250" r="276.445"/>
<circle fill="#DDDD00" cx="2744.250" cy="498.388" r="276.445"/>
<circle fill="#DD0000" cx="-2044.250" cy="201.612" r="276.445"/>
<circle fill="#AA00AA" cx="186.005" cy="-2356.633" r="312.383"/>
<circle fill="#AA00AA" cx="513.995" cy="3056.633" r="312.383"/>
<circle fill="#00DD00" cx="3056.633" cy="186.005" r="312.383"/>
<circle fill="#DDDD00" cx="-2356.633" cy="513.995" r="312.383"/>
<circle fill="#DD0000" cx="538.998" cy="-2709.625" r="352.992"/>
<circle fill="#DD0000" cx="161.002" cy="3409.625" r="352.992"/>
<circle fill="#DD0000" cx="3409.625" cy="538.998" r="352.992"/>
<circle fill="#00DD00" cx="-2709.625" cy="161.002" r="352.992"/>
<circle fill="#DDDD00" cx="140.116" cy="-3108.506" r="398.881"/>
<circle fill="#00DD00" cx="559.884" cy="3808.506" r="398.881"/>
<circle fill="#DDDD00" cx="3808.506" cy="140.116" r="398.881"/>
<circle fill="#DD0000" cx="-3108.506" cy="559.884" r="398.881"/>
<circle fill="#00DD00" cx="590.852" cy="-3559.242" r="450.736"/>
<circle fill="#DDDD00" cx="109.148" cy="4259.242" r="450.736"/>
<circle fill="#AA00AA" cx="4259.242" cy="590.852" r="450.736"/>
<circle fill="#00DD00" cx="-3559.242" cy="109.148" r="450.736"/>
<circle fill="#DD0000" cx="81.521" cy="-4068.573" r="509.331"/>
<circle fill="#00DD00" cx="618.479" cy="4768.573" r="509.331"/>
<circle fill="#DDDD00" cx="4768.573" cy="81.521" r="509.331"/>
<circle fill="#DDDD00" cx="-4068.573" cy="618.479" r="509.331"/>
<circle fill="#AA00AA" cx="657.065" cy="-4644.118" r="575.544"/>
<circle fill="#DDDD00" cx="42.935" cy="5344.118" r="575.544"/>
<circle fill="#DD0000" cx="5344.118" cy="657.065" r="575.544"/>
<circle fill="#00DD00" cx="-4644.118" cy="42.935" r="575.544"/>
<circle fill="#DD0000" cx="6.700" cy="-5294.483" r="650.365"/>
<circle fill="#00DD00" cx="693.300" cy="5994.483" r="650.365"/>
<circle fill="#00DD00" cx="5994.483" cy="6.700" r="650.365"/>
<circle fill="#DDDD00" cx="-5294.483" cy="693.300" r="650.365"/>
<circle fill="#AA00AA" cx="741.613" cy="-6029.396" r="734.913"/>
<circle fill="#DDDD00" cx="-41.613" cy="6729.396" r="734.913"/>
<circle fill="#DDDD00" cx="6729.396" cy="741.613" r="734.913"/>
<circle fill="#DD0000" cx="-6029.396" cy="-41.613" r="734.913"/>
<circle fill="#00DD00" cx="-88.839" cy="-6859.847" r="830.451"/>
<circle fill="#DD0000" cx="788.839" cy="7559.847" r="830.451"/>
<circle fill="#00DD00" cx="7559.847" cy="-88.839" r="830.451"/>
<circle fill="#DDDD00" cx="-6859.847" cy="788.839" r="830.451"/>
<circle fill="#DD0000" cx="849.571" cy="-7798.257" r="938.410"/>
<circle fill="#00DD00" cx="-149.571" cy="8498.257" r="938.410"/>
<circle fill="#DD0000" cx="8498.257" cy="849.571" r="938.410"/>
<circle fill="#00DD00" cx="-7798.257" cy="-149.571" r="938.410"/>
<circle fill="#AA00AA" cx="-210.832" cy="-8858.660" r="1060.403"/>
<circle fill="#DDDD00" cx="910.832" cy="9558.660" r="1060.403"/>
<circle fill="#00DD00" cx="9558.660" cy="-210.832" r="1060.403"/>
<circle fill="#DDDD00" cx="-8858.660" cy="910.832" r="1060.403"/>
<circle fill="#DD0000" cx="987.424" cy="-10056.916" r="1198.256"/>
<circle fill="#00DD00" cx="-287.424" cy="10756.916" r="1198.256"/>
<circle fill="#DDDD00" cx="10756.916" cy="987.424" r="1198.256"/>
<circle fill="#DD0000" cx="-10056.916" cy="-287.424" r="1198.256"/>
<circle fill="#AA00AA" cx="-366.605" cy="-11410.945" r="1354.029"/>
<circle fill="#AA00AA" cx="1066.605" cy="12110.945" r="1354.029"/>
<circle fill="#AA00AA" cx="12110.945" cy="-366.605" r="1354.029"/>
<circle fill="#AA00AA" cx="-11410.945" cy="1066.605" r="1354.029"/>
<circle fill="#DD0000" cx="1163.448" cy="-12940.998" r="1530.053"/>
<circle fill="#00DD00" cx="-463.448" cy="13640.998" r="1530.053"/>
<circle fill="#00DD00" cx="13640.998" cy="1163.448" r="1530.053"/>
<circle fill="#DD0000" cx="-12940.998" cy="-463.448" r="1530.053"/>
<circle fill="#00DD00" cx="-565.512" cy="-14669.958" r="1728.960"/>
<circle fill="#DDDD00" cx="1265.512" cy="15369.958" r="1728.960"/>
<circle fill="#DDDD00" cx="15369.958" cy="-565.512" r="1728.960"/>
<circle fill="#AA00AA" cx="-14669.958" cy="1265.512" r="1728.960"/>
<circle fill="#DDDD00" cx="1388.213" cy="-16623.684" r="1953.725"/>
<circle fill="#AA00AA" cx="-688.213" cy="17323.684" r="1953.725"/>
<circle fill="#DD0000" cx="17323.684" cy="1388.213" r="1953.725"/>
<circle fill="#00DD00" cx="-16623.684" cy="-688.213" r="1953.725"/>
<circle fill="#DD0000" cx="-819.496" cy="-18831.393" r="2207.709"/>
<circle fill="#DD0000" cx="1519.496" cy="19531.393" r="2207.709"/>
<circle fill="#DDDD00" cx="19531.393" cy="-819.496" r="2207.709"/>
<circle fill="#AA00AA" cx="-18831.393" cy="1519.496" r="2207.709"/>
<circle fill="#DDDD00" cx="1675.215" cy="-21326.104" r="2494.711"/>
<circle fill="#00DD00" cx="-975.215" cy="22026.104" r="2494.711"/>
<circle fill="#00DD00" cx="22026.104" cy="1675.215" r="2494.711"/>
<circle fill="#00DD00" cx="-21326.104" cy="-975.215" r="2494.711"/>
</svg>